<svg xmlns="http://www.w3.org/2000/svg" viewBox="0 0 624 625"><path fill-rule="evenodd" d="M293.89 624.45 C293.41 624.09 292.09 624.00 287.19 624.00 C282.36 624.00 280.89 623.90 280.20 623.54 C279.64 623.25 278.46 623.09 276.92 623.09 C275.37 623.09 274.10 622.91 273.37 622.59 C272.62 622.27 270.96 622.05 268.43 621.95 C266.10 621.85 264.30 621.63 263.80 621.37 C263.35 621.14 262.25 620.95 261.36 620.94 C260.47 620.94 259.40 620.74 258.98 620.50 C258.57 620.26 257.46 620.06 256.54 620.05 C255.61 620.04 254.58 619.85 254.25 619.63 C253.92 619.40 252.73 619.14 251.59 619.05 C250.46 618.96 249.33 618.72 249.08 618.52 C248.83 618.31 247.70 618.07 246.57 617.98 C245.44 617.89 244.24 617.63 243.91 617.41 C243.58 617.18 242.76 616.99 242.08 616.98 C241.41 616.98 240.51 616.77 240.09 616.54 C239.67 616.30 238.85 616.09 238.27 616.09 C237.68 616.08 236.81 615.87 236.34 615.63 C235.87 615.38 234.77 615.09 233.90 614.98 C233.04 614.86 232.05 614.59 231.72 614.36 C231.39 614.13 230.78 613.94 230.35 613.94 C229.93 613.93 229.32 613.72 228.99 613.48 C228.67 613.23 227.84 613.03 227.16 613.02 C226.48 613.01 225.58 612.81 225.16 612.57 C224.75 612.33 223.92 612.13 223.34 612.12 C222.75 612.11 221.72 611.83 221.05 611.51 C220.38 611.18 219.60 610.91 219.31 610.91 C219.02 610.90 218.34 610.71 217.79 610.48 C216.28 609.86 214.79 609.36 213.45 609.03 C212.78 608.87 212.10 608.62 211.92 608.48 C211.75 608.34 211.13 608.12 210.54 608.00 C209.95 607.87 208.73 607.38 207.83 606.90 C206.93 606.42 205.90 606.02 205.55 606.01 C205.19 606.01 204.56 605.81 204.14 605.57 C203.72 605.33 203.10 605.12 202.77 605.11 C202.43 605.10 201.61 604.82 200.94 604.50 C200.27 604.18 199.51 603.91 199.25 603.90 C198.98 603.90 197.96 603.48 196.98 602.98 C196.00 602.47 194.95 602.06 194.65 602.06 C194.34 602.06 192.33 601.17 190.17 600.08 C188.01 598.99 186.01 598.10 185.74 598.10 C185.46 598.10 183.55 597.27 181.51 596.25 C179.46 595.23 177.15 594.20 176.37 593.96 C175.60 593.72 174.79 593.32 174.58 593.07 C174.12 592.51 171.36 591.09 170.73 591.09 C170.09 591.09 167.10 589.64 166.66 589.11 C166.45 588.86 164.90 587.96 163.20 587.10 C161.50 586.24 159.84 585.30 159.50 585.00 C159.17 584.70 158.06 584.04 157.04 583.53 C156.01 583.02 154.78 582.28 154.29 581.89 C153.81 581.50 152.72 580.85 151.89 580.46 C151.05 580.06 150.09 579.49 149.75 579.18 C149.41 578.88 148.18 578.13 147.01 577.53 C145.84 576.92 144.60 576.17 144.27 575.87 C143.93 575.56 142.84 574.88 141.83 574.36 C139.78 573.28 138.68 572.56 136.04 570.53 C133.81 568.82 132.38 567.82 131.17 567.14 C130.67 566.86 129.78 566.24 129.19 565.76 C128.61 565.28 127.98 564.89 127.80 564.89 C127.62 564.89 127.14 564.54 126.74 564.11 C126.33 563.69 125.25 562.83 124.32 562.22 C123.40 561.61 121.85 560.38 120.89 559.49 C119.93 558.61 119.00 557.88 118.84 557.88 C118.68 557.88 117.85 557.27 117.00 556.51 C116.15 555.76 115.33 555.14 115.19 555.14 C115.04 555.14 113.50 553.82 111.77 552.21 C110.04 550.60 108.32 549.14 107.94 548.97 C107.57 548.79 107.19 548.42 107.10 548.13 C107.01 547.85 106.45 547.27 105.86 546.85 C105.28 546.43 101.12 542.52 96.63 538.16 C92.13 533.79 88.03 530.00 87.50 529.73 C86.97 529.45 86.31 528.79 86.03 528.25 C85.75 527.71 83.45 525.06 80.92 522.37 C78.39 519.67 75.71 516.68 74.95 515.72 C74.20 514.75 73.13 513.39 72.59 512.69 C72.04 511.99 70.84 510.53 69.93 509.44 C69.01 508.35 67.95 507.02 67.57 506.50 C65.50 503.62 64.94 502.87 63.83 501.46 C63.16 500.61 62.27 499.40 61.85 498.78 C61.43 498.15 60.71 497.17 60.24 496.61 C57.63 493.45 53.09 486.88 51.64 484.18 C51.13 483.23 50.34 481.97 49.89 481.37 C49.43 480.77 49.05 480.18 49.05 480.05 C49.05 479.92 48.66 479.32 48.18 478.71 C47.70 478.10 46.92 476.84 46.45 475.92 C45.99 475.00 45.37 473.97 45.09 473.64 C44.80 473.30 44.06 472.07 43.44 470.89 C42.81 469.72 42.09 468.53 41.84 468.25 C41.58 467.96 41.01 467.00 40.57 466.11 C40.12 465.22 39.40 464.02 38.97 463.43 C38.53 462.84 37.39 460.79 36.43 458.86 C35.46 456.93 34.43 455.08 34.13 454.75 C33.41 453.93 32.91 452.92 32.91 452.28 C32.91 451.70 29.60 444.91 29.20 444.66 C29.06 444.57 28.95 444.14 28.95 443.69 C28.95 442.88 25.79 436.17 25.26 435.84 C25.11 435.74 24.98 435.13 24.98 434.48 C24.98 433.83 24.86 433.22 24.71 433.13 C24.28 432.87 23.19 430.49 22.96 429.30 C22.84 428.71 22.36 427.58 21.88 426.78 C21.41 425.97 21.02 424.98 21.02 424.58 C21.02 424.17 20.54 422.95 19.96 421.86 C19.37 420.77 18.89 419.57 18.88 419.19 C18.88 418.80 18.67 418.22 18.42 417.90 C18.18 417.57 17.98 416.87 17.98 416.33 C17.98 415.80 17.77 415.19 17.52 414.98 C17.27 414.78 17.06 414.15 17.06 413.60 C17.06 413.04 16.88 412.41 16.65 412.18 C16.43 411.95 16.14 411.23 16.02 410.57 C15.89 409.92 15.60 409.10 15.36 408.76 C15.12 408.42 14.93 407.71 14.93 407.18 C14.93 406.66 14.72 406.05 14.47 405.84 C14.18 405.60 14.02 404.93 14.02 404.02 C14.02 403.10 13.85 402.43 13.56 402.19 C13.31 401.98 13.10 401.38 13.10 400.86 C13.10 400.33 12.83 399.49 12.49 398.99 C12.16 398.49 11.89 397.65 11.88 397.12 C11.88 396.60 11.68 396.00 11.43 395.79 C11.14 395.55 10.97 394.88 10.97 393.96 C10.97 393.04 10.80 392.37 10.51 392.13 C10.21 391.88 10.05 391.20 10.05 390.15 C10.05 389.17 9.89 388.42 9.64 388.21 C9.41 388.02 9.15 387.11 9.05 386.20 C8.96 385.28 8.67 384.22 8.40 383.85 C8.09 383.40 7.92 382.50 7.92 381.29 C7.92 379.99 7.78 379.29 7.46 379.03 C7.16 378.78 7.01 378.10 7.01 377.05 C7.01 376.05 6.85 375.32 6.58 375.10 C6.29 374.85 6.12 373.87 6.05 372.00 C5.97 370.03 5.82 369.18 5.50 368.99 C5.19 368.80 5.03 367.92 4.93 365.96 C4.85 364.12 4.66 363.08 4.38 362.85 C4.09 362.61 3.96 361.75 3.96 359.99 C3.96 358.12 3.84 357.37 3.50 357.09 C3.16 356.80 3.05 356.02 3.05 353.77 C3.05 351.79 2.91 350.64 2.63 350.23 C2.33 349.80 2.17 348.05 2.06 344.07 C1.95 339.98 1.79 338.38 1.49 338.01 C1.16 337.61 1.04 335.74 0.96 329.56 C0.88 323.35 0.77 321.49 0.43 321.01 C-0.21 320.10 -0.20 306.45 0.44 305.92 C0.79 305.63 0.89 303.93 0.97 296.67 C1.05 289.68 1.16 287.61 1.50 287.02 C1.81 286.46 1.97 284.73 2.07 280.70 C2.18 276.50 2.32 275.06 2.63 274.79 C2.93 274.55 3.05 273.62 3.05 271.48 C3.05 269.21 3.15 268.41 3.50 268.12 C3.86 267.83 3.96 267.03 3.96 264.62 C3.96 262.22 4.07 261.41 4.42 261.12 C4.72 260.86 4.88 260.17 4.89 259.02 C4.89 257.97 5.12 256.84 5.48 256.09 C5.90 255.22 6.08 254.20 6.08 252.55 C6.09 250.86 6.22 250.12 6.55 249.84 C6.84 249.60 7.01 248.93 7.01 248.00 C7.01 247.10 7.19 246.36 7.46 246.08 C7.74 245.80 7.92 245.05 7.92 244.18 C7.92 243.30 8.11 242.53 8.39 242.21 C8.68 241.89 8.94 240.81 9.05 239.45 C9.16 238.22 9.42 237.02 9.65 236.80 C9.87 236.57 10.05 235.74 10.05 234.93 C10.05 234.00 10.22 233.33 10.51 233.09 C10.77 232.87 10.97 232.21 10.97 231.56 C10.97 230.92 11.17 230.25 11.43 230.04 C11.70 229.81 11.88 229.15 11.88 228.40 C11.88 227.70 12.16 226.62 12.49 226.00 C12.83 225.37 13.10 224.54 13.10 224.14 C13.10 223.74 13.31 223.24 13.56 223.03 C13.82 222.82 14.02 222.15 14.02 221.51 C14.02 220.86 14.21 220.20 14.47 219.98 C14.76 219.75 14.93 219.08 14.93 218.19 C14.93 217.41 15.12 216.50 15.35 216.17 C15.58 215.84 15.87 215.09 16.00 214.50 C16.12 213.91 16.41 213.16 16.64 212.83 C16.87 212.50 17.06 211.80 17.06 211.27 C17.06 210.74 17.27 210.14 17.52 209.93 C17.77 209.72 17.98 209.10 17.98 208.56 C17.98 208.01 18.18 207.40 18.43 207.19 C18.68 206.98 18.89 206.43 18.89 205.97 C18.89 205.21 20.98 200.72 21.65 200.04 C21.81 199.88 21.94 198.80 21.94 197.64 C21.94 195.66 22.00 195.46 23.00 194.35 C23.59 193.70 24.07 192.98 24.07 192.75 C24.07 192.52 24.28 192.16 24.53 191.95 C24.78 191.74 24.98 191.19 24.98 190.73 C24.98 190.26 26.08 187.74 27.42 185.12 C28.76 182.49 29.86 180.13 29.86 179.86 C29.86 179.07 33.22 172.39 34.17 171.30 C34.69 170.70 35.04 169.95 35.04 169.42 C35.04 168.92 35.38 168.14 35.82 167.61 C36.88 166.35 38.09 164.03 38.09 163.25 C38.09 162.90 38.45 162.14 38.89 161.56 C39.33 160.98 40.10 159.73 40.60 158.79 C41.10 157.84 41.74 156.79 42.03 156.46 C42.32 156.12 42.93 155.09 43.40 154.17 C43.86 153.25 44.60 152.02 45.05 151.43 C45.50 150.84 46.19 149.68 46.59 148.84 C46.99 148.00 47.55 147.04 47.85 146.71 C48.15 146.37 48.64 145.68 48.95 145.17 C49.98 143.46 51.44 141.23 52.04 140.46 C52.36 140.04 53.02 138.95 53.49 138.02 C53.97 137.10 54.94 135.66 55.67 134.83 C56.39 133.99 56.98 133.20 56.98 133.06 C56.98 132.92 57.35 132.31 57.81 131.71 C58.28 131.11 58.93 130.17 59.26 129.63 C60.90 126.98 61.75 125.85 63.23 124.31 C64.11 123.39 65.23 122.08 65.71 121.39 C66.74 119.91 68.53 117.57 70.30 115.39 C71.01 114.52 72.33 112.84 73.24 111.67 C74.14 110.49 75.67 108.78 76.62 107.86 C77.58 106.94 78.92 105.43 79.60 104.51 C81.12 102.45 100.50 82.90 103.06 80.85 C104.07 80.04 106.40 77.97 108.24 76.25 C110.08 74.53 111.69 73.13 111.83 73.13 C111.97 73.13 112.88 72.44 113.85 71.60 C114.83 70.77 115.77 70.08 115.95 70.08 C116.37 70.08 117.77 68.57 118.01 67.86 C118.12 67.57 118.45 67.23 118.75 67.12 C119.04 67.02 120.07 66.30 121.02 65.53 C122.80 64.10 124.10 63.18 125.66 62.24 C126.14 61.94 127.25 61.07 128.11 60.30 C129.59 59.00 132.38 56.97 133.82 56.17 C134.17 55.97 134.94 55.45 135.55 55.02 C137.58 53.55 138.78 52.74 139.70 52.22 C140.20 51.94 141.02 51.37 141.51 50.96 C142.00 50.55 142.69 50.09 143.03 49.94 C143.65 49.67 145.98 48.11 147.47 46.98 C147.89 46.66 149.46 45.77 150.97 45.01 C152.48 44.24 154.19 43.27 154.76 42.83 C155.34 42.40 156.11 42.05 156.47 42.05 C156.84 42.05 157.64 41.64 158.26 41.15 C158.88 40.66 160.03 39.95 160.82 39.58 C161.60 39.21 162.72 38.55 163.31 38.12 C164.70 37.08 180.94 28.95 181.62 28.95 C181.91 28.95 183.50 28.26 185.15 27.42 C186.80 26.59 188.37 25.90 188.64 25.90 C188.92 25.90 190.36 25.30 191.84 24.57 C193.33 23.83 194.98 23.14 195.51 23.03 C196.04 22.91 197.65 22.21 199.10 21.46 C200.55 20.72 201.96 20.11 202.25 20.11 C202.54 20.11 203.70 19.63 204.84 19.04 C205.99 18.46 207.19 17.98 207.53 17.98 C207.87 17.98 208.44 17.82 208.80 17.62 C209.16 17.43 209.87 17.16 210.38 17.03 C211.75 16.67 214.22 15.83 215.31 15.35 C215.84 15.12 216.53 14.93 216.85 14.93 C217.17 14.93 217.70 14.73 218.02 14.48 C218.35 14.24 218.96 14.03 219.38 14.01 C219.79 14.00 220.48 13.80 220.90 13.56 C221.32 13.32 222.14 13.12 222.73 13.11 C223.31 13.10 224.20 12.89 224.69 12.63 C225.19 12.37 226.22 12.08 226.98 11.98 C227.74 11.88 228.73 11.61 229.19 11.38 C229.64 11.16 230.54 10.97 231.18 10.97 C231.83 10.97 232.63 10.77 232.95 10.52 C233.28 10.28 234.06 10.07 234.70 10.06 C235.34 10.06 236.23 9.87 236.68 9.64 C237.13 9.41 238.19 9.12 239.02 9.00 C239.86 8.88 240.91 8.58 241.37 8.35 C241.82 8.11 242.93 7.92 243.83 7.92 C244.79 7.92 245.70 7.74 246.05 7.47 C246.38 7.23 247.19 7.02 247.86 7.01 C248.53 7.00 249.42 6.79 249.84 6.55 C250.26 6.31 251.26 6.11 252.06 6.10 C252.86 6.10 254.03 5.87 254.65 5.61 C255.28 5.34 257.02 5.05 258.53 4.97 C260.04 4.89 261.70 4.63 262.23 4.39 C262.76 4.15 264.14 3.96 265.29 3.96 C266.67 3.96 267.60 3.81 267.99 3.51 C268.40 3.20 269.39 3.06 271.26 3.06 C272.92 3.05 274.26 2.89 274.77 2.63 C275.28 2.37 277.04 2.16 279.40 2.07 C281.89 1.98 283.48 1.78 283.97 1.50 C284.55 1.17 286.40 1.04 291.65 0.97 C297.15 0.89 298.63 0.78 298.92 0.43 C299.40 -0.14 300.40 -0.12 301.07 0.49 C301.57 0.95 301.65 0.95 302.11 0.49 C302.54 0.06 303.90 0.00 313.93 0.00 C323.23 0.00 325.38 0.08 325.89 0.43 C326.37 0.77 328.14 0.89 333.98 0.97 C339.70 1.04 341.58 1.16 341.96 1.48 C342.30 1.77 343.82 1.94 346.96 2.05 C349.86 2.16 351.75 2.36 352.28 2.63 C352.73 2.86 354.03 3.05 355.17 3.06 C356.39 3.06 357.56 3.25 358.01 3.50 C358.50 3.78 359.68 3.94 361.31 3.95 C362.82 3.96 364.25 4.14 364.82 4.39 C365.35 4.63 366.85 4.89 368.16 4.98 C369.47 5.06 370.74 5.31 370.99 5.51 C371.24 5.72 372.57 5.95 373.94 6.03 C375.32 6.11 376.81 6.36 377.26 6.59 C377.72 6.82 378.54 7.01 379.09 7.02 C379.65 7.02 380.44 7.23 380.86 7.46 C381.28 7.70 382.10 7.91 382.69 7.91 C383.27 7.92 384.14 8.13 384.61 8.37 C385.08 8.62 386.17 8.91 387.03 9.03 C387.88 9.14 388.94 9.42 389.37 9.64 C389.80 9.87 390.84 10.06 391.68 10.06 C392.51 10.07 393.54 10.27 393.96 10.51 C394.38 10.75 395.07 10.95 395.50 10.96 C395.93 10.96 396.55 11.17 396.87 11.42 C397.20 11.66 397.94 11.87 398.53 11.88 C399.12 11.89 400.20 12.17 400.93 12.50 C401.66 12.83 402.55 13.11 402.91 13.11 C403.27 13.12 403.82 13.32 404.15 13.57 C404.48 13.81 405.30 14.02 405.98 14.03 C406.66 14.03 407.56 14.23 407.98 14.47 C408.40 14.71 408.98 14.91 409.28 14.92 C409.58 14.92 410.79 15.41 411.98 16.00 C413.17 16.58 414.43 17.07 414.79 17.07 C415.15 17.08 415.71 17.28 416.03 17.53 C416.39 17.80 417.30 17.98 418.34 17.98 C419.81 17.98 420.27 18.13 421.56 19.04 C422.38 19.63 423.35 20.11 423.70 20.11 C424.05 20.11 425.11 20.52 426.06 21.02 C427.00 21.53 428.01 21.94 428.31 21.94 C428.61 21.94 430.63 22.83 432.81 23.92 C434.99 25.00 436.98 25.89 437.24 25.90 C437.49 25.90 438.70 26.38 439.93 26.96 C441.15 27.55 442.36 28.03 442.61 28.03 C443.29 28.03 449.66 31.28 450.70 32.15 C451.19 32.57 451.86 32.91 452.20 32.91 C452.98 32.91 457.48 35.16 458.63 36.12 C459.12 36.53 459.74 36.87 460.03 36.87 C460.69 36.87 464.21 38.53 464.48 38.98 C464.60 39.16 465.54 39.74 466.57 40.26 C467.61 40.78 468.93 41.56 469.51 41.99 C470.09 42.42 471.66 43.34 473.01 44.01 C474.36 44.69 475.96 45.62 476.56 46.08 C477.16 46.54 477.78 46.92 477.94 46.92 C478.09 46.92 478.70 47.31 479.28 47.79 C479.86 48.27 481.09 49.05 482.02 49.51 C482.94 49.98 484.31 50.90 485.06 51.56 C485.81 52.22 487.13 53.09 487.99 53.50 C488.85 53.91 490.16 54.77 490.89 55.41 C491.62 56.06 492.96 56.96 493.87 57.42 C494.77 57.88 496.51 59.10 497.74 60.13 C501.56 63.34 503.66 65.02 504.88 65.84 C505.53 66.28 506.62 67.13 507.29 67.75 C507.97 68.36 508.65 68.86 508.81 68.86 C508.97 68.86 509.88 69.54 510.84 70.38 C511.80 71.22 512.69 71.91 512.83 71.91 C512.97 71.91 514.39 73.07 516.00 74.50 C517.60 75.92 519.05 77.09 519.21 77.09 C519.37 77.09 519.66 77.43 519.85 77.85 C520.04 78.26 520.62 78.86 521.14 79.18 C524.15 80.99 548.54 106.21 550.97 110.01 C551.28 110.49 551.77 110.96 552.07 111.05 C552.37 111.15 552.75 111.53 552.93 111.92 C553.10 112.30 553.94 113.38 554.80 114.32 C555.66 115.26 556.81 116.65 557.35 117.41 C557.90 118.16 558.75 119.36 559.25 120.05 C559.76 120.75 561.18 122.44 562.41 123.81 C563.64 125.17 565.12 127.18 565.70 128.27 C566.74 130.25 567.40 131.27 569.15 133.64 C569.65 134.32 570.07 134.99 570.07 135.11 C570.07 135.23 570.66 136.04 571.38 136.91 C572.10 137.77 573.23 139.35 573.89 140.41 C574.56 141.47 575.46 142.77 575.89 143.30 C576.33 143.83 577.06 145.02 577.51 145.95 C578.28 147.53 579.45 149.37 581.19 151.72 C582.33 153.25 582.11 153.70 580.17 153.81 C579.28 153.86 578.39 153.76 578.18 153.60 C577.98 153.43 577.27 153.16 576.61 153.00 C574.92 152.58 573.62 152.11 570.97 150.93 C569.71 150.37 568.20 149.90 567.62 149.90 C567.04 149.89 566.22 149.69 565.80 149.45 C565.39 149.21 564.56 149.00 563.98 148.99 C563.39 148.98 562.57 148.77 562.15 148.54 C561.73 148.30 560.94 148.09 560.39 148.09 C559.84 148.08 558.88 147.87 558.27 147.61 C557.65 147.35 556.32 147.06 555.30 146.96 C554.29 146.86 553.27 146.62 553.04 146.44 C552.78 146.24 550.56 146.03 547.55 145.93 C544.65 145.84 542.13 145.61 541.64 145.40 C541.02 145.13 537.75 145.03 529.97 145.03 C521.06 145.03 518.98 145.11 518.07 145.49 C517.47 145.74 516.10 145.95 515.02 145.95 C513.94 145.95 512.69 146.13 512.24 146.36 C511.79 146.59 510.38 146.86 509.11 146.96 C507.85 147.06 506.31 147.36 505.70 147.61 C505.08 147.87 503.97 148.08 503.21 148.08 C502.46 148.08 501.39 148.27 500.84 148.50 C498.94 149.29 497.70 149.67 496.34 149.89 C494.63 150.17 491.47 151.25 489.53 152.22 C488.72 152.62 487.83 152.95 487.55 152.96 C487.27 152.96 486.65 153.16 486.17 153.41 C485.69 153.66 485.07 153.87 484.80 153.88 C484.53 153.88 483.75 154.15 483.08 154.48 C482.41 154.80 481.64 155.07 481.37 155.08 C480.34 155.10 466.12 162.43 464.85 163.60 C464.15 164.24 463.10 164.86 462.52 164.99 C461.93 165.12 460.97 165.62 460.39 166.10 C459.81 166.58 459.21 166.97 459.06 166.97 C458.92 166.97 457.99 167.62 457.02 168.42 C455.23 169.87 453.97 170.77 452.34 171.76 C451.86 172.06 450.86 172.82 450.11 173.45 C449.37 174.08 448.39 174.79 447.94 175.02 C446.82 175.61 441.39 181.22 440.77 182.43 C440.49 182.97 439.75 183.68 439.12 184.00 C437.98 184.58 430.83 191.65 430.83 192.19 C430.83 192.36 429.94 193.48 428.85 194.70 C427.76 195.91 426.87 197.02 426.87 197.16 C426.87 197.31 426.04 198.33 425.04 199.44 C424.03 200.55 423.21 201.56 423.21 201.69 C423.21 201.82 422.73 202.52 422.15 203.26 C421.56 204.00 421.08 204.73 421.08 204.90 C421.07 205.07 420.59 205.81 420.01 206.54 C419.42 207.28 418.95 207.99 418.95 208.12 C418.95 208.25 418.62 208.75 418.23 209.22 C417.83 209.69 416.80 211.45 415.93 213.13 C415.05 214.80 414.10 216.45 413.80 216.78 C413.04 217.64 410.11 223.58 410.11 224.27 C410.11 224.58 409.42 226.18 408.59 227.81 C407.75 229.45 407.06 231.15 407.06 231.59 C407.06 232.04 406.87 232.56 406.64 232.75 C406.41 232.94 406.15 233.58 406.05 234.18 C405.86 235.35 404.75 237.85 404.29 238.13 C404.14 238.22 404.02 238.83 404.02 239.47 C404.02 240.13 403.82 240.79 403.56 241.01 C403.29 241.23 403.10 241.90 403.10 242.65 C403.10 243.34 402.83 244.42 402.49 245.05 C402.16 245.67 401.88 246.74 401.88 247.43 C401.88 248.12 401.68 248.87 401.43 249.13 C401.15 249.41 400.97 250.15 400.97 251.05 C400.97 251.98 400.80 252.65 400.51 252.89 C400.21 253.14 400.05 253.82 400.05 254.87 C400.05 255.85 399.89 256.61 399.64 256.81 C399.36 257.05 399.18 258.27 399.06 260.74 C398.95 263.13 398.73 264.62 398.41 265.23 C398.05 265.91 397.92 267.07 397.91 269.80 C397.91 272.53 397.79 273.61 397.46 274.05 C397.08 274.54 397.01 276.24 397.01 283.97 C397.01 291.70 397.08 293.40 397.46 293.89 C397.81 294.36 397.90 295.65 397.91 300.12 C397.92 304.60 398.02 305.94 398.40 306.66 C398.68 307.20 398.94 308.78 399.05 310.62 C399.16 312.40 399.40 313.93 399.64 314.28 C399.95 314.72 400.06 316.17 400.06 319.76 C400.07 323.57 400.17 324.77 400.52 325.24 C401.18 326.11 401.17 365.69 400.51 366.84 C400.19 367.41 400.07 368.81 400.07 372.34 C400.06 375.80 399.94 377.23 399.64 377.67 C399.40 378.02 399.15 379.56 399.05 381.40 C398.92 383.47 398.70 384.76 398.39 385.20 C398.07 385.66 397.92 386.60 397.91 388.16 C397.91 389.70 397.75 390.65 397.46 391.05 C397.15 391.46 397.01 392.41 397.01 394.13 C397.01 395.98 396.89 396.73 396.55 397.01 C396.27 397.24 396.09 397.91 396.09 398.72 C396.09 399.47 395.83 400.55 395.48 401.19 C395.08 401.95 394.88 402.91 394.88 404.05 C394.88 405.21 394.73 405.89 394.42 406.15 C394.17 406.36 393.96 406.97 393.96 407.52 C393.96 408.07 393.76 408.68 393.50 408.89 C393.20 409.14 393.05 409.82 393.05 410.87 C393.05 411.92 392.89 412.60 392.59 412.85 C392.32 413.08 392.13 413.74 392.13 414.49 C392.13 415.19 391.86 416.27 391.52 416.89 C391.19 417.52 390.91 418.42 390.91 418.91 C390.91 419.39 390.71 419.96 390.46 420.16 C390.21 420.37 390.00 420.99 390.00 421.54 C390.00 422.08 389.79 422.70 389.54 422.91 C389.29 423.11 389.09 423.71 389.08 424.24 C389.08 424.76 388.81 425.60 388.48 426.11 C388.14 426.61 387.87 427.36 387.86 427.78 C387.85 428.20 387.65 428.81 387.40 429.13 C387.15 429.46 386.95 430.15 386.95 430.67 C386.95 431.19 386.82 431.75 386.67 431.91 C386.09 432.49 383.91 437.02 383.90 437.65 C383.90 438.26 379.90 446.51 379.31 447.11 C379.16 447.27 379.03 447.84 379.03 448.38 C379.03 449.10 378.68 449.74 377.67 450.86 C376.92 451.69 375.74 453.52 375.04 454.93 C374.35 456.34 373.20 458.17 372.50 459.01 C371.80 459.85 370.94 461.02 370.58 461.60 C370.22 462.19 369.51 463.07 369.00 463.56 C368.36 464.18 368.06 464.75 368.06 465.38 C368.06 466.18 367.22 467.14 361.89 472.41 C358.50 475.77 354.92 479.13 353.95 479.88 C352.97 480.64 351.60 481.70 350.90 482.24 C348.60 484.03 347.14 485.06 346.90 485.06 C346.77 485.06 346.17 485.44 345.56 485.91 C344.20 486.94 341.84 488.10 341.06 488.12 C340.75 488.13 340.01 488.54 339.43 489.04 C338.85 489.53 338.12 489.94 337.81 489.94 C337.12 489.94 336.18 490.42 335.06 491.35 C334.58 491.75 333.85 492.07 333.42 492.07 C333.00 492.07 332.13 492.48 331.50 492.98 C330.87 493.49 330.11 493.90 329.82 493.90 C329.53 493.90 327.48 494.79 325.27 495.88 C323.05 496.97 321.06 497.86 320.84 497.86 C320.61 497.86 319.42 498.34 318.18 498.93 C316.95 499.51 315.70 500.00 315.42 500.00 C315.13 500.01 314.55 500.21 314.13 500.45 C313.71 500.69 313.10 500.89 312.76 500.90 C312.43 500.90 311.75 501.12 311.25 501.38 C310.76 501.64 309.73 501.93 308.97 502.03 C308.21 502.13 307.21 502.40 306.76 502.62 C306.31 502.85 305.41 503.04 304.76 503.04 C304.11 503.04 303.32 503.24 302.99 503.49 C302.67 503.73 301.85 503.94 301.18 503.95 C300.51 503.97 299.62 504.17 299.20 504.41 C298.78 504.65 297.86 504.85 297.14 504.86 C296.42 504.86 295.06 505.14 294.10 505.48 C293.13 505.82 291.56 506.09 290.53 506.10 C289.51 506.10 288.35 506.30 287.93 506.54 C287.48 506.80 286.31 506.98 285.09 506.99 C283.95 507.00 282.72 507.17 282.35 507.38 C281.89 507.64 279.46 507.81 274.68 507.92 C269.24 508.04 267.50 508.17 266.91 508.53 C266.27 508.91 264.22 508.98 254.11 508.97 C243.51 508.96 241.90 508.90 240.62 508.44 C239.50 508.04 238.14 507.91 234.83 507.90 C231.50 507.90 230.36 507.79 229.90 507.45 C229.49 507.13 228.51 507.00 226.54 507.00 C224.56 507.00 223.59 506.87 223.17 506.55 C222.82 506.29 221.88 506.10 220.90 506.09 C219.98 506.09 218.81 505.87 218.31 505.60 C217.81 505.34 216.71 505.05 215.87 504.95 C215.03 504.86 214.08 504.59 213.75 504.36 C213.42 504.14 212.43 503.95 211.55 503.95 C210.67 503.95 209.50 503.77 208.95 503.54 C207.50 502.93 205.97 502.41 204.73 502.11 C204.13 501.96 203.24 501.63 202.75 501.38 C202.26 501.12 201.58 500.90 201.25 500.90 C200.91 500.89 200.29 500.69 199.88 500.45 C199.46 500.21 198.87 500.01 198.56 500.00 C198.26 500.00 197.17 499.57 196.14 499.06 C195.11 498.55 193.65 498.05 192.88 497.95 C192.12 497.85 191.06 497.43 190.52 497.02 C189.27 496.08 187.39 495.12 186.79 495.12 C186.16 495.12 179.47 491.83 178.70 491.14 C178.36 490.85 177.67 490.35 177.16 490.04 C175.72 489.18 173.30 487.59 172.47 486.98 C172.06 486.68 170.88 485.95 169.84 485.37 C167.68 484.15 165.83 482.76 162.35 479.73 C161.00 478.56 159.47 477.31 158.94 476.95 C156.27 475.17 148.63 467.27 144.18 461.71 C139.92 456.39 139.00 455.14 137.49 452.65 C137.20 452.17 136.38 451.08 135.66 450.24 C134.95 449.39 133.94 447.86 133.42 446.84 C132.90 445.83 132.23 444.72 131.93 444.39 C131.31 443.68 127.05 435.39 127.05 434.89 C127.05 434.71 126.85 434.39 126.60 434.18 C126.35 433.97 126.14 433.47 126.14 433.06 C126.14 432.26 124.77 429.13 124.29 428.84 C124.14 428.74 124.01 428.19 124.01 427.62 C124.01 426.89 123.72 426.26 123.05 425.49 C122.31 424.66 122.05 424.02 121.94 422.82 C121.85 421.96 121.60 421.06 121.37 420.84 C121.15 420.61 120.96 419.97 120.96 419.42 C120.96 418.86 120.76 418.24 120.50 418.03 C120.25 417.82 120.05 417.26 120.05 416.78 C120.05 416.30 119.57 415.02 118.98 413.94 C118.22 412.53 117.91 411.58 117.91 410.62 C117.91 409.79 117.74 409.12 117.46 408.89 C117.21 408.68 117.00 408.07 117.00 407.52 C117.00 406.97 116.79 406.36 116.54 406.15 C116.26 405.92 116.09 405.25 116.09 404.43 C116.09 403.68 115.82 402.60 115.48 401.96 C115.14 401.34 114.87 400.26 114.87 399.56 C114.87 398.81 114.68 398.15 114.41 397.92 C114.11 397.67 113.95 396.99 113.95 395.94 C113.95 394.89 113.80 394.21 113.50 393.96 C113.17 393.69 113.04 392.98 113.04 391.52 C113.04 390.07 112.91 389.35 112.58 389.09 C112.28 388.83 112.12 388.13 112.11 386.99 C112.11 385.94 111.88 384.81 111.52 384.06 C111.10 383.19 110.92 382.17 110.92 380.52 C110.91 378.83 110.78 378.09 110.45 377.81 C110.09 377.52 109.99 376.68 109.99 373.99 C109.99 371.33 109.89 370.44 109.54 370.09 C109.21 369.76 109.08 368.96 109.08 367.24 C109.08 365.53 108.94 364.65 108.58 364.14 C108.19 363.58 108.06 362.36 107.95 358.06 C107.85 354.34 107.67 352.38 107.38 351.72 C107.05 350.99 106.94 349.16 106.94 344.10 C106.93 338.73 106.84 337.33 106.48 336.85 C105.82 335.98 105.83 301.27 106.49 300.12 C106.83 299.51 106.93 297.77 106.93 291.78 C106.94 285.93 107.04 284.00 107.38 283.25 C107.65 282.64 107.86 280.76 107.95 278.03 C108.06 274.91 108.23 273.51 108.58 272.85 C108.94 272.18 109.08 271.07 109.09 268.73 C109.09 266.41 109.22 265.37 109.54 264.94 C109.87 264.52 109.99 263.52 109.99 261.40 C109.99 259.24 110.11 258.35 110.42 258.10 C110.71 257.85 110.88 256.87 110.95 255.00 C111.03 253.08 111.19 252.18 111.48 252.00 C111.76 251.82 111.96 250.94 112.06 249.42 C112.15 248.00 112.36 246.98 112.62 246.76 C112.90 246.53 113.04 245.73 113.04 244.36 C113.04 242.90 113.17 242.19 113.50 241.92 C113.81 241.66 113.95 240.97 113.95 239.74 C113.95 238.26 114.14 237.58 115.02 235.96 C115.89 234.34 116.09 233.66 116.09 232.20 C116.09 230.99 116.23 230.30 116.54 230.04 C116.80 229.83 117.00 229.16 117.00 228.52 C117.00 227.87 117.20 227.21 117.46 226.99 C117.71 226.78 117.91 226.19 117.91 225.68 C117.91 225.17 118.13 224.51 118.40 224.22 C118.66 223.93 118.95 223.13 119.05 222.45 C119.14 221.77 119.40 221.06 119.63 220.87 C119.86 220.68 120.05 219.98 120.05 219.33 C120.05 218.55 120.21 218.08 120.50 217.96 C120.80 217.85 120.96 217.38 120.96 216.66 C120.96 216.04 121.09 215.41 121.25 215.25 C121.91 214.58 123.09 211.97 123.09 211.17 C123.09 210.70 123.30 210.14 123.55 209.93 C123.80 209.72 124.01 209.18 124.01 208.73 C124.01 207.67 134.12 187.53 135.26 186.32 C136.25 185.26 138.02 182.61 139.55 179.87 C140.14 178.81 141.19 177.37 141.88 176.65 C142.58 175.93 143.40 174.93 143.71 174.42 C145.27 171.85 152.22 164.03 155.40 161.27 C156.91 159.96 159.66 157.52 161.52 155.85 C163.38 154.17 165.59 152.32 166.44 151.73 C168.65 150.20 170.34 149.07 171.34 148.46 C171.82 148.17 172.78 147.51 173.47 147.00 C174.17 146.50 175.50 145.71 176.44 145.27 C177.38 144.82 178.32 144.24 178.53 143.99 C179.01 143.40 189.75 138.02 190.43 138.02 C190.72 138.02 192.31 137.34 193.96 136.51 C195.62 135.67 197.23 134.99 197.53 134.98 C197.84 134.98 198.38 134.82 198.75 134.62 C199.11 134.43 199.82 134.16 200.32 134.03 C201.70 133.67 204.17 132.83 205.25 132.35 C205.78 132.12 206.67 131.92 207.23 131.92 C207.79 131.91 208.60 131.71 209.02 131.47 C209.43 131.23 210.12 131.03 210.55 131.03 C210.97 131.02 211.59 130.83 211.92 130.60 C212.25 130.37 213.41 130.11 214.50 130.02 C215.59 129.94 216.89 129.64 217.39 129.37 C217.90 129.11 218.79 128.88 219.38 128.87 C219.96 128.87 220.78 128.67 221.20 128.43 C221.65 128.17 222.85 127.98 224.10 127.97 C225.35 127.96 226.55 127.77 226.99 127.51 C227.48 127.23 228.68 127.07 230.34 127.06 C231.88 127.06 233.25 126.89 233.71 126.65 C234.17 126.41 236.13 126.16 238.54 126.05 C241.12 125.92 242.77 125.71 243.07 125.46 C243.77 124.88 277.26 124.90 277.97 125.48 C278.32 125.77 280.00 125.93 283.88 126.04 C287.59 126.15 289.60 126.33 290.26 126.63 C290.83 126.88 292.26 127.06 293.76 127.07 C295.39 127.07 296.58 127.23 297.07 127.51 C297.49 127.75 298.59 127.95 299.52 127.96 C300.44 127.96 301.47 128.16 301.80 128.38 C302.13 128.61 303.33 128.87 304.46 128.96 C305.59 129.05 306.72 129.29 306.97 129.49 C307.22 129.70 308.35 129.94 309.48 130.03 C310.62 130.12 311.81 130.37 312.14 130.60 C312.47 130.83 313.10 131.02 313.52 131.02 C313.95 131.02 314.57 131.20 314.90 131.44 C315.23 131.67 316.12 131.93 316.88 132.01 C318.23 132.17 320.40 132.82 322.25 133.64 C322.78 133.87 323.65 134.06 324.17 134.06 C324.70 134.06 325.96 134.47 326.98 134.98 C327.99 135.48 329.03 135.89 329.28 135.89 C329.54 135.89 331.55 136.77 333.75 137.85 C335.95 138.92 338.09 139.89 338.51 140.01 C339.75 140.34 343.62 142.27 344.52 143.01 C344.99 143.39 346.12 144.08 347.04 144.56 C347.96 145.03 349.17 145.81 349.73 146.30 C350.28 146.79 351.24 147.50 351.86 147.90 C352.48 148.29 353.80 149.35 354.81 150.25 C355.82 151.15 357.36 152.23 358.24 152.65 C359.12 153.06 359.92 153.67 360.03 153.98 C360.31 154.89 362.49 157.11 363.90 157.94 C365.23 158.72 368.98 162.43 368.98 162.96 C368.98 163.13 370.07 164.46 371.41 165.90 C372.75 167.35 373.85 168.65 373.85 168.80 C373.85 168.94 374.39 169.68 375.04 170.44 C375.70 171.19 377.02 173.02 377.98 174.49 C378.94 175.97 380.06 177.54 380.47 177.98 C381.94 179.57 383.31 181.82 385.78 186.70 C388.83 192.72 389.04 192.87 393.68 192.85 C396.41 192.84 396.60 192.80 397.61 191.94 C398.19 191.44 398.96 191.04 399.33 191.04 C400.15 191.04 402.87 189.71 403.43 189.03 C403.65 188.76 404.68 188.14 405.72 187.65 C406.75 187.16 408.12 186.35 408.75 185.85 C409.37 185.35 409.99 184.95 410.11 184.95 C410.23 184.95 410.81 184.56 411.40 184.09 C412.00 183.62 414.11 182.44 416.09 181.46 C418.08 180.48 419.98 179.43 420.32 179.13 C420.66 178.83 421.89 178.08 423.06 177.47 C424.23 176.86 425.47 176.13 425.80 175.84 C426.14 175.55 426.79 175.07 427.25 174.79 C427.71 174.50 428.09 174.05 428.09 173.79 C428.09 173.43 428.29 173.36 428.96 173.51 C429.68 173.67 430.01 173.53 430.79 172.75 C431.76 171.78 431.98 171.11 431.44 170.78 C431.27 170.67 431.13 170.27 431.13 169.89 C431.13 169.23 429.08 164.82 428.40 164.01 C428.23 163.81 428.09 163.32 428.09 162.91 C428.09 162.04 422.64 151.07 421.72 150.09 C421.37 149.72 421.08 149.28 421.08 149.12 C421.08 148.96 420.69 148.35 420.22 147.77 C419.75 147.18 419.05 146.09 418.67 145.34 C418.28 144.58 417.19 142.82 416.25 141.42 C415.30 140.01 414.34 138.53 414.12 138.12 C413.89 137.70 412.86 136.45 411.81 135.33 C410.77 134.22 409.59 132.82 409.19 132.23 C408.79 131.65 407.79 130.42 406.97 129.51 C406.14 128.59 405.32 127.52 405.14 127.12 C404.96 126.72 404.30 126.14 403.68 125.82 C402.92 125.43 402.37 124.84 402.02 124.05 C401.68 123.28 401.08 122.62 400.33 122.20 C399.70 121.84 399.09 121.27 398.98 120.93 C398.87 120.59 398.45 120.19 398.04 120.04 C397.64 119.88 397.15 119.42 396.97 119.02 C396.79 118.62 396.34 118.15 395.98 117.98 C395.63 117.81 394.40 116.83 393.26 115.81 C392.12 114.79 391.08 113.95 390.94 113.95 C390.80 113.95 389.69 113.06 388.48 111.97 C387.26 110.88 386.16 109.99 386.03 109.99 C385.89 109.99 384.98 109.31 384.01 108.47 C383.03 107.64 382.12 106.95 381.98 106.95 C381.84 106.95 381.29 106.61 380.74 106.19 C380.20 105.78 378.94 105.01 377.95 104.48 C376.95 103.96 375.86 103.28 375.53 102.98 C375.19 102.68 373.20 101.59 371.11 100.55 C369.01 99.52 367.03 98.43 366.69 98.12 C365.89 97.40 364.87 96.89 364.23 96.89 C363.95 96.89 361.95 96.00 359.79 94.91 C357.63 93.82 355.63 92.93 355.34 92.93 C355.05 92.92 353.44 92.24 351.76 91.41 C350.09 90.57 348.49 89.89 348.22 89.89 C347.94 89.88 347.33 89.68 346.85 89.43 C346.37 89.18 345.72 88.97 345.42 88.97 C345.12 88.97 344.57 88.81 344.21 88.62 C343.85 88.42 343.13 88.16 342.63 88.02 C341.25 87.67 338.79 86.83 337.70 86.35 C337.17 86.11 336.49 85.92 336.18 85.91 C335.87 85.91 335.27 85.70 334.85 85.46 C334.43 85.23 333.61 85.02 333.02 85.01 C332.44 85.00 331.61 84.79 331.20 84.55 C330.78 84.31 330.02 84.11 329.52 84.10 C329.01 84.10 327.44 83.66 326.01 83.13 C324.31 82.50 322.59 82.11 320.99 81.99 C319.65 81.88 318.25 81.63 317.89 81.42 C317.52 81.22 316.31 81.05 315.19 81.05 C314.07 81.05 312.73 80.85 312.20 80.62 C311.67 80.38 310.17 80.12 308.86 80.03 C307.55 79.94 306.27 79.70 306.02 79.49 C305.76 79.28 304.22 79.03 302.46 78.93 C300.75 78.83 299.06 78.58 298.69 78.37 C298.27 78.14 296.71 78.00 294.48 78.00 C292.20 78.00 290.70 77.86 290.27 77.62 C289.81 77.35 287.21 77.19 281.68 77.09 C275.41 76.97 273.60 76.84 273.00 76.48 C271.86 75.80 250.82 75.80 250.00 76.48 C249.56 76.84 248.05 76.96 242.41 77.09 C237.59 77.19 235.16 77.36 234.71 77.62 C234.28 77.86 232.74 78.00 230.44 78.01 C227.89 78.02 226.62 78.15 226.08 78.46 C225.65 78.70 224.48 78.90 223.40 78.90 C222.35 78.91 220.98 79.13 220.36 79.40 C219.73 79.67 217.99 79.96 216.48 80.04 C214.97 80.12 213.31 80.38 212.78 80.62 C212.25 80.85 211.36 81.05 210.80 81.06 C210.24 81.06 209.43 81.26 209.02 81.50 C208.60 81.74 207.53 81.94 206.64 81.95 C205.75 81.96 204.65 82.15 204.20 82.38 C203.75 82.60 202.76 82.87 201.99 82.97 C201.23 83.07 200.20 83.36 199.71 83.62 C199.21 83.88 198.33 84.10 197.74 84.10 C197.16 84.11 196.33 84.31 195.91 84.55 C195.50 84.79 194.81 85.00 194.39 85.01 C193.97 85.02 193.36 85.23 193.04 85.47 C192.71 85.72 192.18 85.92 191.86 85.92 C191.55 85.92 190.85 86.11 190.32 86.35 C189.24 86.83 186.77 87.67 185.40 88.02 C184.89 88.16 184.18 88.42 183.82 88.62 C183.45 88.81 182.83 88.97 182.43 88.97 C182.04 88.97 181.44 89.17 181.12 89.42 C180.79 89.66 180.28 89.87 179.97 89.87 C179.67 89.88 178.78 90.14 177.99 90.45 C175.56 91.41 174.47 91.77 173.57 91.94 C173.10 92.02 171.41 92.76 169.82 93.58 C168.23 94.39 166.67 95.06 166.36 95.06 C165.56 95.06 161.52 97.14 160.33 98.16 C159.78 98.64 159.00 99.02 158.60 99.02 C157.77 99.02 151.92 101.93 150.37 103.11 C149.80 103.55 149.23 103.90 149.09 103.90 C148.95 103.90 148.24 104.38 147.50 104.97 C146.77 105.55 146.06 106.03 145.93 106.03 C145.79 106.03 145.30 106.35 144.83 106.75 C144.35 107.14 142.59 108.18 140.92 109.05 C139.24 109.92 137.46 111.02 136.96 111.50 C136.10 112.30 134.76 113.25 132.40 114.71 C131.86 115.05 130.75 115.88 129.92 116.56 C129.10 117.23 128.07 118.01 127.65 118.28 C127.22 118.55 125.89 119.64 124.71 120.70 C123.52 121.77 121.58 123.44 120.40 124.42 C117.83 126.56 104.40 140.10 103.13 141.83 C102.64 142.50 101.45 143.91 100.48 144.97 C99.51 146.02 98.48 147.26 98.20 147.71 C97.92 148.16 97.10 149.24 96.37 150.11 C95.65 150.97 95.06 151.79 95.06 151.94 C95.06 152.08 94.37 152.99 93.54 153.97 C92.70 154.95 92.02 155.86 92.02 156.01 C92.02 156.15 91.33 157.05 90.49 158.01 C89.65 158.97 88.97 159.88 88.97 160.04 C88.97 160.20 88.62 160.75 88.19 161.26 C87.76 161.77 86.99 163.02 86.48 164.04 C85.97 165.07 85.31 166.18 85.01 166.51 C84.71 166.85 84.08 167.88 83.61 168.80 C83.14 169.72 82.43 170.91 82.03 171.45 C80.74 173.18 70.08 194.76 70.08 195.64 C70.08 196.11 69.96 196.56 69.82 196.65 C69.32 196.96 67.03 201.92 67.03 202.69 C67.03 203.11 66.83 203.63 66.57 203.84 C66.32 204.04 66.12 204.64 66.12 205.17 C66.11 205.69 65.84 206.53 65.51 207.04 C65.17 207.54 64.90 208.39 64.90 208.92 C64.90 209.46 64.77 209.97 64.62 210.07 C64.14 210.36 63.07 212.83 63.07 213.64 C63.07 214.07 62.87 214.59 62.63 214.79 C62.39 214.99 62.10 215.93 61.98 216.88 C61.86 217.83 61.58 218.88 61.35 219.21 C61.12 219.54 60.94 220.25 60.94 220.78 C60.94 221.31 60.73 221.91 60.48 222.12 C60.23 222.33 60.02 222.94 60.02 223.49 C60.02 224.03 59.82 224.65 59.57 224.86 C59.28 225.10 59.11 225.77 59.11 226.65 C59.11 227.54 58.88 228.39 58.50 228.97 C58.12 229.55 57.89 230.40 57.89 231.30 C57.89 232.18 57.72 232.85 57.43 233.09 C57.13 233.34 56.98 234.01 56.98 235.07 C56.98 236.12 56.82 236.80 56.52 237.05 C56.23 237.28 56.06 237.96 56.06 238.84 C56.06 239.62 55.87 240.53 55.64 240.86 C55.41 241.19 55.12 242.21 55.00 243.12 C54.87 244.03 54.58 244.97 54.35 245.20 C54.05 245.50 53.93 246.48 53.93 248.61 C53.93 250.89 53.82 251.69 53.47 251.98 C53.15 252.25 53.02 252.96 53.02 254.41 C53.02 255.87 52.88 256.58 52.56 256.85 C52.21 257.14 52.10 257.91 52.10 260.01 C52.10 262.03 51.96 263.04 51.59 263.71 C51.23 264.36 51.04 265.63 50.95 268.12 C50.86 270.42 50.67 271.83 50.39 272.23 C50.07 272.69 49.97 274.19 49.97 278.67 C49.97 283.48 49.89 284.57 49.51 284.88 C49.14 285.19 49.05 286.18 49.05 290.19 C49.05 294.06 48.96 295.25 48.61 295.72 C47.93 296.62 47.92 336.68 48.60 338.31 C48.96 339.18 49.05 340.88 49.05 346.53 C49.05 352.50 49.13 353.73 49.51 354.05 C49.88 354.35 49.97 355.25 49.97 358.46 C49.97 361.55 50.07 362.59 50.39 362.86 C50.70 363.11 50.85 364.21 50.93 366.81 C51.01 369.41 51.16 370.56 51.49 370.95 C51.80 371.33 51.97 372.45 52.05 374.64 C52.13 376.84 52.30 377.90 52.59 378.15 C52.89 378.39 53.02 379.24 53.02 381.01 C53.02 382.88 53.13 383.63 53.47 383.91 C53.82 384.20 53.93 384.99 53.93 387.24 C53.93 389.35 54.06 390.36 54.37 390.78 C54.62 391.10 54.91 392.16 55.02 393.12 C55.13 394.08 55.41 395.02 55.64 395.21 C55.90 395.43 56.06 396.17 56.06 397.16 C56.06 398.21 56.22 398.89 56.52 399.14 C56.81 399.38 56.98 400.05 56.98 400.98 C56.98 401.82 57.16 402.63 57.40 402.87 C57.65 403.12 57.87 404.18 57.94 405.50 C58.02 406.85 58.22 407.80 58.46 407.95 C58.67 408.08 58.93 408.76 59.02 409.45 C59.11 410.14 59.38 410.87 59.61 411.06 C59.86 411.27 60.02 412.02 60.02 413.00 C60.02 414.06 60.18 414.74 60.48 414.98 C60.73 415.19 60.94 415.82 60.94 416.37 C60.94 416.93 61.12 417.56 61.35 417.79 C61.57 418.01 61.86 418.74 61.98 419.39 C62.11 420.05 62.40 420.87 62.64 421.21 C62.88 421.55 63.07 422.26 63.07 422.78 C63.07 423.31 63.28 423.92 63.53 424.12 C63.78 424.33 63.98 424.95 63.98 425.50 C63.98 426.04 64.19 426.66 64.44 426.87 C64.69 427.08 64.90 427.68 64.90 428.20 C64.90 428.72 65.17 429.56 65.51 430.07 C65.84 430.57 66.12 431.32 66.12 431.74 C66.13 432.16 66.34 432.77 66.58 433.10 C66.83 433.42 67.03 434.11 67.03 434.63 C67.03 435.15 67.15 435.71 67.30 435.87 C68.03 436.67 70.08 441.02 70.08 441.77 C70.08 442.25 70.28 442.81 70.54 443.02 C70.79 443.22 70.99 443.76 70.99 444.21 C70.99 445.08 80.81 464.95 82.04 466.57 C82.45 467.10 83.22 468.39 83.74 469.43 C84.26 470.46 84.83 471.40 85.01 471.50 C85.18 471.61 85.79 472.62 86.36 473.74 C86.93 474.85 87.89 476.35 88.51 477.06 C89.12 477.77 90.04 479.14 90.55 480.11 C91.07 481.07 91.94 482.37 92.49 482.98 C93.04 483.59 93.66 484.42 93.87 484.81 C94.07 485.20 94.81 486.21 95.51 487.04 C96.20 487.88 97.00 488.94 97.29 489.39 C97.57 489.85 98.60 491.08 99.57 492.13 C100.55 493.19 101.67 494.53 102.07 495.12 C102.46 495.70 103.43 496.88 104.22 497.72 C105.01 498.57 105.86 499.68 106.12 500.18 C106.70 501.30 110.75 505.17 111.35 505.17 C111.59 505.17 111.87 505.48 111.98 505.86 C112.27 506.81 114.79 509.37 116.12 510.06 C117.32 510.68 118.73 512.19 119.16 513.31 C119.30 513.69 119.62 514.01 119.87 514.01 C120.12 514.01 121.12 514.75 122.10 515.66 C123.08 516.57 124.70 517.76 125.70 518.29 C126.70 518.83 128.40 520.06 129.49 521.01 C130.58 521.97 131.79 522.92 132.19 523.12 C132.58 523.33 133.40 523.95 134.01 524.51 C134.63 525.06 135.93 525.93 136.90 526.45 C137.87 526.96 139.31 527.92 140.10 528.58 C140.88 529.23 143.10 530.55 145.03 531.51 C146.96 532.46 148.97 533.58 149.50 533.99 C150.74 534.93 162.25 540.71 163.46 540.99 C163.97 541.11 165.18 541.60 166.16 542.08 C167.14 542.56 168.18 542.95 168.46 542.95 C168.75 542.95 170.33 543.64 171.97 544.48 C173.89 545.46 175.34 546.00 176.06 546.01 C176.67 546.02 177.52 546.22 177.94 546.46 C178.36 546.70 178.94 546.90 179.24 546.90 C179.54 546.91 180.75 547.39 181.94 547.98 C183.13 548.57 184.56 549.05 185.12 549.05 C185.68 549.05 186.59 549.23 187.14 549.46 C189.27 550.35 190.35 550.65 192.26 550.89 C193.35 551.02 194.75 551.35 195.37 551.61 C195.99 551.88 196.95 552.10 197.50 552.10 C198.05 552.11 198.77 552.31 199.10 552.56 C199.45 552.83 200.38 553.01 201.38 553.02 C202.31 553.02 203.42 553.23 203.84 553.46 C204.29 553.72 205.46 553.91 206.73 553.91 C207.99 553.92 209.21 554.11 209.72 554.37 C210.20 554.62 211.49 554.92 212.60 555.03 C213.71 555.14 214.97 555.42 215.40 555.64 C215.89 555.90 217.30 556.06 219.22 556.06 C221.28 556.07 222.52 556.22 223.03 556.51 C223.61 556.84 225.09 556.95 229.21 556.96 C233.32 556.97 234.89 557.08 235.72 557.43 C237.30 558.09 259.96 558.09 261.12 557.43 C261.67 557.11 263.02 556.98 265.99 556.97 C268.97 556.95 270.32 556.83 270.87 556.51 C271.36 556.23 272.55 556.07 274.22 556.06 C275.76 556.06 277.12 555.89 277.59 555.65 C278.01 555.42 279.45 555.16 280.79 555.05 C282.12 554.95 283.72 554.65 284.34 554.39 C284.96 554.13 286.13 553.92 286.93 553.91 C287.73 553.91 288.73 553.70 289.15 553.46 C289.57 553.23 290.67 553.02 291.59 553.02 C292.52 553.01 293.55 552.82 293.88 552.59 C294.21 552.36 294.89 552.10 295.39 552.01 C295.90 551.92 297.27 551.47 298.44 551.02 C299.61 550.57 300.99 550.13 301.49 550.04 C301.99 549.95 302.67 549.69 303.00 549.46 C303.33 549.23 303.96 549.05 304.39 549.05 C304.83 549.05 305.45 548.85 305.77 548.60 C306.10 548.35 306.80 548.15 307.33 548.14 C308.61 548.13 309.75 547.68 310.85 546.75 C311.46 546.24 312.11 546.00 312.90 546.00 C313.73 546.00 315.18 545.43 317.95 544.02 C320.09 542.93 322.09 542.04 322.40 542.04 C323.12 542.04 325.26 540.94 326.67 539.85 C327.28 539.38 327.90 538.99 328.05 538.99 C328.19 538.99 328.79 538.61 329.37 538.14 C329.96 537.67 331.60 536.69 333.02 535.97 C334.44 535.25 336.22 534.15 336.98 533.52 C337.74 532.90 339.18 531.94 340.18 531.40 C341.19 530.86 342.77 529.69 343.69 528.81 C344.61 527.93 345.98 526.76 346.73 526.20 C348.69 524.75 357.01 516.51 357.89 515.15 C358.29 514.52 358.79 514.01 358.99 514.01 C359.47 514.01 361.05 512.46 361.05 511.99 C361.05 511.78 361.80 510.80 362.71 509.82 C363.62 508.84 364.80 507.22 365.34 506.22 C365.88 505.23 366.92 503.70 367.65 502.84 C368.38 501.97 368.98 501.16 368.98 501.04 C368.98 500.92 369.39 500.25 369.90 499.56 C371.77 497.04 372.34 496.12 373.88 493.14 C374.75 491.46 375.78 489.70 376.18 489.23 C376.57 488.75 376.90 488.20 376.90 487.99 C376.90 487.78 377.25 487.28 377.67 486.88 C378.33 486.26 378.54 486.21 379.04 486.52 C379.37 486.72 380.05 486.89 380.57 486.89 C381.69 486.89 384.43 487.98 385.26 488.75 C385.76 489.22 385.79 489.42 385.48 490.09 C385.22 490.68 385.12 498.18 385.12 519.56 C385.12 548.04 385.13 548.25 385.76 549.56 L386.40 550.88 L410.52 550.80 L434.64 550.72 L434.82 539.30 C434.92 533.01 435.03 495.28 435.05 455.44 C435.09 384.17 435.10 383.01 435.68 382.70 C436.71 382.15 437.20 382.35 437.84 383.62 C438.19 384.29 438.71 384.94 438.99 385.04 C439.28 385.15 440.13 385.77 440.88 386.43 C441.64 387.09 442.62 387.81 443.07 388.05 C443.52 388.28 443.97 388.75 444.08 389.09 C444.19 389.42 444.65 389.89 445.10 390.13 C445.55 390.36 446.77 391.28 447.81 392.18 C451.33 395.22 457.64 400.05 458.07 400.05 C458.19 400.05 458.74 400.39 459.28 400.81 C459.82 401.22 461.08 402.00 462.08 402.52 C463.07 403.05 464.27 403.81 464.75 404.21 C465.22 404.61 465.73 404.93 465.87 404.93 C466.01 404.93 466.54 405.28 467.05 405.71 C468.15 406.63 474.94 410.10 475.66 410.10 C475.94 410.11 477.37 410.71 478.86 411.44 C480.34 412.17 482.01 412.87 482.55 412.99 C483.10 413.11 484.30 413.61 485.21 414.10 C486.13 414.58 487.16 414.98 487.51 414.98 C487.86 414.98 488.45 415.15 488.81 415.36 C489.18 415.56 490.03 415.89 490.70 416.08 C492.15 416.50 493.68 417.04 495.05 417.61 C495.60 417.84 497.02 418.03 498.21 418.03 C500.15 418.03 500.47 418.12 501.35 418.90 C502.14 419.59 502.74 419.80 504.29 419.95 C505.36 420.05 506.75 420.34 507.37 420.60 C508.06 420.89 509.44 421.08 510.87 421.09 C512.35 421.10 513.53 421.26 514.01 421.54 C514.45 421.79 515.65 421.98 516.90 421.99 C518.15 422.00 519.35 422.19 519.80 422.45 C520.94 423.10 537.93 423.11 539.19 422.45 C539.84 422.11 541.19 421.99 544.63 421.98 C548.01 421.97 549.40 421.86 549.96 421.54 C550.43 421.27 551.60 421.10 552.99 421.09 C555.14 421.08 557.71 420.47 560.21 419.37 C560.74 419.13 561.63 418.94 562.19 418.93 C562.76 418.93 563.56 418.73 563.98 418.49 C564.40 418.25 565.49 418.04 566.41 418.03 C567.34 418.02 568.43 417.81 568.85 417.57 C569.27 417.33 569.89 417.13 570.22 417.12 C570.56 417.11 571.38 416.83 572.05 416.51 C572.72 416.18 573.48 415.91 573.75 415.91 C574.01 415.90 575.00 415.50 575.94 415.02 C576.88 414.54 578.04 414.07 578.51 413.98 C579.89 413.72 583.31 412.39 585.63 411.21 C586.82 410.60 588.02 410.11 588.30 410.10 C588.95 410.09 595.17 407.00 596.58 405.99 C599.04 404.22 599.88 403.68 601.76 402.68 C602.85 402.10 604.44 401.04 605.30 400.31 C606.16 399.58 607.26 398.75 607.74 398.46 C610.18 396.98 611.79 395.89 612.25 395.41 C613.49 394.13 614.63 396.60 613.50 398.09 C613.25 398.42 613.05 399.32 613.04 400.09 C613.03 400.97 612.86 401.65 612.57 401.88 C612.32 402.09 612.12 402.62 612.12 403.07 C612.12 403.51 611.84 404.38 611.51 405.01 C611.17 405.63 610.90 406.70 610.90 407.39 C610.90 408.09 610.70 408.83 610.44 409.09 C610.19 409.34 609.98 409.94 609.98 410.42 C609.98 410.91 609.57 412.00 609.07 412.85 C608.57 413.70 608.07 414.94 607.97 415.60 C607.86 416.26 607.59 416.96 607.36 417.15 C607.13 417.34 606.94 418.01 606.94 418.64 C606.94 419.29 606.74 419.95 606.48 420.16 C606.23 420.37 606.02 420.98 606.02 421.51 C606.02 422.04 605.89 422.61 605.73 422.77 C605.16 423.35 603.89 426.00 603.89 426.63 C603.89 427.35 602.78 429.81 602.34 430.08 C602.19 430.18 602.06 430.70 602.06 431.24 C602.06 431.77 601.87 432.49 601.64 432.82 C601.41 433.15 601.12 433.90 601.00 434.48 C600.87 435.07 600.37 436.00 599.89 436.55 C599.31 437.22 599.02 437.89 599.02 438.55 C599.02 439.09 598.88 439.68 598.71 439.84 C598.12 440.44 595.05 446.83 595.05 447.48 C595.05 447.85 594.70 448.57 594.27 449.08 C593.24 450.30 589.89 457.00 589.88 457.85 C589.88 458.21 589.53 458.92 589.10 459.43 C588.67 459.94 587.45 462.09 586.38 464.21 C585.31 466.33 584.17 468.36 583.85 468.72 C583.53 469.08 582.73 470.47 582.09 471.81 C581.44 473.15 580.53 474.79 580.05 475.46 C578.08 478.25 577.67 478.90 576.74 480.64 C576.21 481.65 575.15 483.25 574.37 484.21 C572.60 486.39 571.87 487.49 570.65 489.79 C570.12 490.79 569.08 492.31 568.35 493.17 C567.62 494.03 567.02 494.85 567.02 495.00 C567.02 495.15 566.33 496.07 565.50 497.05 C564.66 498.02 563.98 498.94 563.98 499.09 C563.98 499.23 563.24 500.14 562.35 501.12 C560.82 502.77 559.82 504.13 558.34 506.55 C558.00 507.10 556.76 508.62 555.58 509.94 C554.41 511.26 553.21 512.71 552.92 513.17 C552.62 513.63 551.12 515.34 549.57 516.98 C548.01 518.61 546.34 520.50 545.85 521.17 C544.61 522.87 525.86 541.72 522.83 544.32 C521.47 545.50 519.10 547.61 517.56 549.01 C516.03 550.42 514.49 551.69 514.14 551.85 C513.80 552.01 513.31 552.46 513.07 552.85 C512.83 553.24 511.47 554.34 510.05 555.29 C508.62 556.25 506.75 557.70 505.88 558.52 C505.01 559.34 504.17 560.02 504.01 560.02 C503.85 560.02 502.73 560.91 501.52 562.00 C500.30 563.09 499.20 563.98 499.06 563.98 C498.93 563.98 498.02 564.66 497.05 565.50 C496.07 566.33 495.16 567.02 495.02 567.02 C494.88 567.02 494.28 567.40 493.68 567.86 C492.61 568.68 491.65 569.31 489.64 570.53 C489.08 570.86 487.96 571.72 487.15 572.42 C486.34 573.13 484.95 574.05 484.07 574.47 C483.19 574.88 481.73 575.85 480.84 576.61 C479.95 577.37 478.91 577.99 478.54 577.99 C478.16 577.99 477.38 578.34 476.81 578.77 C474.99 580.13 472.84 581.45 470.07 582.91 C468.60 583.68 466.94 584.65 466.40 585.06 C465.00 586.12 440.86 598.11 440.12 598.12 C439.79 598.12 439.04 598.53 438.46 599.03 C437.88 599.52 437.12 599.93 436.78 599.93 C436.44 599.93 435.79 600.13 435.34 600.36 C434.89 600.59 434.09 600.88 433.56 601.00 C433.03 601.12 431.79 601.61 430.81 602.09 C429.83 602.58 428.83 602.98 428.58 602.98 C428.34 602.98 427.13 603.46 425.91 604.04 C424.69 604.63 423.46 605.11 423.19 605.11 C422.91 605.11 421.92 605.52 420.97 606.02 C420.03 606.53 418.95 606.94 418.56 606.94 C418.18 606.94 417.59 607.13 417.26 607.36 C416.93 607.59 415.93 607.88 415.05 608.00 C414.16 608.12 412.69 608.61 411.78 609.10 C410.87 609.59 409.65 609.98 409.08 609.98 C408.51 609.98 407.17 610.42 406.10 610.94 C405.04 611.47 403.55 611.97 402.80 612.05 C402.04 612.14 401.16 612.39 400.82 612.62 C400.49 612.85 399.87 613.03 399.44 613.03 C399.00 613.03 398.38 613.23 398.06 613.48 C397.73 613.72 396.94 613.93 396.31 613.94 C395.67 613.94 394.78 614.13 394.33 614.36 C393.87 614.59 392.85 614.86 392.05 614.96 C391.25 615.07 390.20 615.36 389.71 615.62 C389.21 615.87 388.29 616.08 387.65 616.09 C387.02 616.09 386.23 616.30 385.90 616.54 C385.58 616.79 384.76 617.00 384.08 617.00 C383.40 617.01 382.50 617.21 382.08 617.45 C381.66 617.69 380.63 617.89 379.79 617.90 C378.96 617.90 377.86 618.12 377.36 618.39 C376.85 618.65 375.76 618.95 374.93 619.04 C374.10 619.14 373.08 619.41 372.65 619.63 C372.22 619.85 370.91 620.04 369.74 620.05 C368.35 620.05 367.40 620.21 367.01 620.51 C366.63 620.80 365.70 620.95 364.32 620.95 C363.16 620.95 361.78 621.15 361.25 621.38 C360.66 621.65 358.79 621.87 356.40 621.96 C353.89 622.06 352.34 622.25 352.04 622.50 C351.77 622.72 350.28 622.96 348.47 623.07 C346.76 623.17 345.06 623.42 344.70 623.63 C344.24 623.88 342.35 624.00 338.72 624.00 C334.36 624.00 333.33 624.08 333.02 624.46 C332.46 625.14 294.79 625.13 293.89 624.45 Z M482.94 356.49 C482.03 356.15 480.69 355.88 479.98 355.88 C479.27 355.88 478.23 355.69 477.68 355.46 C476.32 354.89 474.74 354.35 473.64 354.07 C470.24 353.21 463.64 347.96 461.14 344.13 C460.59 343.29 459.93 342.42 459.68 342.21 C459.42 342.00 459.12 341.26 459.00 340.58 C458.89 339.89 458.39 338.66 457.91 337.84 C457.19 336.62 457.03 336.00 457.03 334.42 C457.03 333.07 456.89 332.37 456.57 332.11 C456.21 331.81 456.12 330.94 456.12 328.00 C456.12 325.05 456.21 324.18 456.57 323.88 C456.90 323.61 457.03 322.90 457.03 321.45 C457.03 319.99 457.16 319.28 457.49 319.01 C457.74 318.80 457.95 318.18 457.95 317.62 C457.95 317.07 458.15 316.41 458.40 316.16 C458.65 315.91 458.86 315.38 458.86 314.99 C458.86 314.60 459.13 313.76 459.47 313.14 C459.80 312.51 460.08 311.60 460.08 311.11 C460.08 310.61 460.20 310.13 460.36 310.04 C460.84 309.74 461.91 307.27 461.91 306.44 C461.91 306.00 462.13 305.43 462.39 305.16 C462.66 304.89 462.95 304.13 463.04 303.46 C463.13 302.80 463.39 302.10 463.62 301.91 C463.85 301.72 464.04 301.05 464.04 300.42 C464.04 299.78 464.24 299.11 464.50 298.90 C464.75 298.69 464.95 298.13 464.95 297.66 C464.95 297.19 465.43 295.98 466.02 294.98 C466.61 293.98 467.09 292.75 467.09 292.26 C467.09 291.76 467.29 291.19 467.54 290.98 C467.80 290.76 468.00 290.10 468.00 289.45 C468.00 288.81 468.20 288.14 468.46 287.93 C468.71 287.72 468.91 287.22 468.91 286.82 C468.91 286.43 469.19 285.59 469.52 284.96 C469.86 284.34 470.13 283.52 470.13 283.15 C470.13 282.78 470.54 281.77 471.05 280.92 C471.55 280.07 471.96 278.98 471.96 278.49 C471.96 278.01 472.17 277.41 472.42 277.16 C472.67 276.91 472.88 276.31 472.88 275.84 C472.88 275.37 473.15 274.57 473.48 274.07 C473.82 273.56 474.09 272.72 474.09 272.20 C474.09 271.68 474.30 271.08 474.55 270.87 C474.80 270.66 475.01 270.10 475.01 269.62 C475.01 269.15 475.42 268.07 475.92 267.21 C476.42 266.36 476.92 265.13 477.02 264.46 C477.13 263.80 477.41 263.11 477.64 262.91 C477.87 262.72 478.05 262.05 478.05 261.42 C478.05 260.78 478.25 260.11 478.51 259.90 C478.76 259.69 478.97 259.07 478.97 258.53 C478.97 257.98 479.17 257.36 479.43 257.16 C479.68 256.95 479.88 256.35 479.88 255.82 C479.89 255.30 480.16 254.46 480.49 253.96 C480.83 253.45 481.10 252.60 481.10 252.05 C481.10 251.51 481.21 251.06 481.33 251.06 C481.69 251.06 482.93 248.17 482.93 247.32 C482.93 246.91 483.12 246.41 483.36 246.21 C483.60 246.01 483.89 245.31 484.00 244.66 C484.25 243.15 486.75 238.29 488.80 235.31 C490.32 233.10 495.46 227.91 496.13 227.91 C496.30 227.91 496.75 227.62 497.12 227.28 C497.94 226.50 506.55 222.12 507.25 222.12 C507.53 222.11 508.17 221.90 508.68 221.63 C509.18 221.36 510.41 221.08 511.42 220.99 C512.42 220.91 513.68 220.65 514.21 220.41 C515.58 219.80 524.81 219.82 525.89 220.44 C526.31 220.68 527.34 220.88 528.18 220.89 C529.01 220.90 530.30 221.18 531.03 221.51 C531.76 221.85 532.58 222.12 532.86 222.12 C533.31 222.13 534.13 222.56 537.16 224.40 C537.71 224.74 539.13 225.87 540.31 226.92 C541.49 227.96 542.55 228.82 542.67 228.82 C543.04 228.82 543.59 227.98 544.61 225.85 C545.49 224.02 547.12 222.12 547.81 222.12 C547.94 222.12 548.65 221.64 549.38 221.05 C550.12 220.47 551.07 219.98 551.48 219.98 C551.90 219.97 552.59 219.77 553.01 219.53 C553.57 219.21 554.94 219.09 558.22 219.08 C562.36 219.07 562.70 219.11 563.24 219.71 C563.56 220.06 564.23 220.56 564.74 220.81 C566.43 221.66 567.94 223.36 567.94 224.43 C567.94 224.96 568.14 225.56 568.39 225.77 C569.04 226.31 569.03 232.36 568.38 233.22 C568.14 233.55 567.94 234.40 567.94 235.11 C567.94 236.01 567.65 236.89 567.02 237.96 C566.52 238.81 566.11 239.88 566.11 240.34 C566.11 240.79 565.83 241.57 565.50 242.07 C565.17 242.58 564.89 243.35 564.89 243.79 C564.89 244.23 564.68 244.76 564.43 244.97 C564.17 245.18 563.98 245.85 563.98 246.51 C563.98 247.15 563.85 247.75 563.70 247.85 C563.26 248.12 562.21 250.50 561.98 251.74 C561.87 252.36 561.59 253.03 561.35 253.22 C561.12 253.42 560.93 254.02 560.93 254.57 C560.93 255.11 560.72 255.73 560.47 255.94 C560.21 256.15 560.02 256.82 560.02 257.46 C560.02 258.09 559.83 258.76 559.60 258.95 C559.37 259.14 559.11 259.81 559.03 260.44 C558.94 261.06 558.44 262.30 557.92 263.19 C557.40 264.07 556.97 265.19 556.97 265.66 C556.97 266.14 556.76 266.70 556.51 266.91 C556.26 267.11 556.05 267.72 556.05 268.25 C556.05 268.78 555.87 269.48 555.64 269.81 C555.41 270.14 555.13 270.94 555.01 271.60 C554.89 272.25 554.60 272.98 554.36 273.22 C554.12 273.46 553.92 274.11 553.92 274.66 C553.92 275.21 553.72 275.84 553.46 276.05 C553.21 276.26 553.01 276.83 553.01 277.32 C553.01 277.81 552.53 279.09 551.94 280.18 C551.35 281.27 550.87 282.46 550.87 282.83 C550.86 283.21 550.65 283.78 550.41 284.10 C550.16 284.43 549.96 285.13 549.96 285.67 C549.96 286.20 549.76 286.81 549.50 287.02 C549.25 287.22 549.05 287.78 549.05 288.26 C549.05 289.05 547.86 291.67 547.20 292.33 C547.04 292.49 546.91 293.06 546.91 293.59 C546.91 294.12 546.71 294.73 546.46 294.94 C546.20 295.15 546.00 295.82 546.00 296.46 C546.00 297.11 545.80 297.77 545.54 297.98 C545.29 298.19 545.09 298.82 545.09 299.37 C545.09 299.93 544.88 300.59 544.62 300.84 C544.37 301.09 544.08 301.75 543.98 302.31 C543.77 303.46 542.73 305.82 542.32 306.07 C542.16 306.17 542.04 306.77 542.04 307.41 C542.04 308.05 541.85 308.73 541.62 308.92 C541.39 309.11 541.13 309.81 541.04 310.47 C540.95 311.14 540.66 311.90 540.39 312.17 C540.13 312.43 539.91 313.11 539.91 313.66 C539.91 314.21 539.70 314.84 539.45 315.05 C539.19 315.26 538.99 315.93 538.99 316.59 C538.99 317.23 538.86 317.83 538.71 317.93 C538.26 318.21 536.86 321.33 536.86 322.06 C536.86 322.42 536.65 322.91 536.40 323.16 C536.12 323.44 535.95 324.19 535.95 325.09 C535.95 326.02 535.78 326.69 535.49 326.93 C534.94 327.38 534.83 332.39 535.35 332.92 C535.53 333.10 535.91 333.70 536.19 334.27 C536.52 334.94 537.25 335.60 538.23 336.13 C539.56 336.84 540.10 336.95 542.50 336.96 C544.33 336.96 545.49 336.82 546.00 336.53 C546.42 336.29 547.02 336.09 547.33 336.08 C548.37 336.06 552.21 333.22 555.16 330.29 C557.80 327.66 559.46 325.56 561.03 322.87 C561.34 322.34 561.84 321.63 562.14 321.29 C562.43 320.96 563.73 318.56 565.02 315.96 C566.30 313.37 567.49 311.11 567.65 310.95 C567.81 310.79 567.94 310.28 567.94 309.81 C567.94 309.35 568.42 308.08 569.00 306.99 C569.59 305.91 570.07 304.61 570.07 304.11 C570.07 303.61 570.20 303.12 570.35 303.03 C570.83 302.73 571.90 300.26 571.90 299.43 C571.90 299.00 572.12 298.42 572.39 298.15 C572.65 297.88 572.95 297.12 573.03 296.46 C573.12 295.79 573.38 295.10 573.61 294.90 C573.84 294.71 574.03 294.04 574.03 293.41 C574.03 292.77 574.23 292.10 574.49 291.89 C574.74 291.68 574.95 291.07 574.95 290.52 C574.95 289.97 575.13 289.37 575.36 289.18 C575.59 288.99 575.86 288.35 575.96 287.75 C576.15 286.58 577.26 284.08 577.71 283.80 C577.87 283.71 577.99 283.17 577.99 282.60 C577.99 282.04 578.20 281.37 578.45 281.12 C578.70 280.87 578.91 280.27 578.91 279.80 C578.91 279.33 579.18 278.53 579.52 278.03 C579.85 277.52 580.12 276.68 580.12 276.16 C580.12 275.64 580.33 275.04 580.58 274.83 C580.83 274.62 581.04 274.00 581.04 273.46 C581.04 272.91 581.24 272.29 581.50 272.09 C581.75 271.87 581.95 271.21 581.95 270.56 C581.95 269.93 582.14 269.26 582.37 269.07 C582.60 268.88 582.86 268.18 582.95 267.52 C583.04 266.86 583.33 266.09 583.60 265.83 C583.87 265.56 584.09 264.89 584.09 264.33 C584.09 263.78 584.29 263.15 584.54 262.95 C584.79 262.74 585.00 262.11 585.00 261.56 C585.00 261.00 585.21 260.35 585.46 260.09 C585.71 259.84 585.91 259.28 585.91 258.84 C585.91 258.40 586.39 257.16 586.98 256.07 C587.57 254.98 588.05 253.70 588.05 253.22 C588.05 252.75 588.25 252.19 588.50 251.98 C588.76 251.77 588.96 251.14 588.96 250.59 C588.96 250.04 589.17 249.38 589.42 249.13 C589.67 248.87 589.88 248.28 589.88 247.81 C589.88 247.34 590.15 246.54 590.48 246.04 C590.82 245.53 591.09 244.69 591.09 244.17 C591.09 243.64 591.30 243.04 591.55 242.84 C591.80 242.63 592.01 242.07 592.01 241.59 C592.01 241.12 592.42 240.03 592.92 239.18 C593.42 238.33 593.92 237.09 594.02 236.43 C594.13 235.77 594.41 235.07 594.64 234.88 C594.87 234.69 595.05 234.02 595.05 233.39 C595.05 232.75 595.25 232.08 595.51 231.87 C595.76 231.66 595.97 231.11 595.97 230.65 C595.97 229.21 597.35 227.25 600.63 224.02 C602.97 221.72 604.01 220.90 604.57 220.90 C605.00 220.90 605.74 220.69 606.22 220.44 C606.83 220.12 608.05 219.99 610.30 219.99 L613.50 219.98 L615.97 222.50 C618.63 225.19 619.12 225.92 619.12 227.09 C619.12 227.50 619.33 228.00 619.58 228.21 C620.22 228.74 620.23 233.93 619.59 234.78 C619.35 235.10 619.14 235.92 619.13 236.59 C619.13 237.27 618.85 238.33 618.52 238.95 C618.18 239.58 617.91 240.44 617.91 240.88 C617.91 241.31 617.70 241.87 617.45 242.12 C617.20 242.37 616.99 243.04 616.99 243.60 C616.99 244.17 616.86 244.71 616.71 244.80 C616.23 245.10 614.86 248.23 614.86 249.03 C614.86 249.43 614.65 249.94 614.40 250.15 C614.15 250.36 613.95 250.97 613.95 251.52 C613.95 252.07 613.74 252.68 613.49 252.89 C613.23 253.10 613.03 253.77 613.03 254.41 C613.03 255.04 612.84 255.71 612.61 255.90 C612.38 256.10 612.12 256.79 612.03 257.46 C611.95 258.12 611.65 258.88 611.39 259.15 C611.12 259.42 610.90 260.00 610.90 260.43 C610.90 261.26 609.83 263.73 609.35 264.03 C609.20 264.12 609.07 264.64 609.07 265.18 C609.07 265.72 608.88 266.44 608.64 266.78 C608.40 267.12 608.11 267.93 607.98 268.59 C607.86 269.25 607.57 269.97 607.35 270.20 C607.12 270.42 606.94 271.06 606.94 271.61 C606.94 272.17 606.73 272.79 606.48 273.00 C606.23 273.21 606.02 273.82 606.02 274.35 C606.02 274.88 605.82 275.59 605.58 275.91 C605.33 276.24 605.12 276.85 605.12 277.27 C605.11 277.68 604.83 278.44 604.50 278.94 C604.17 279.44 603.89 280.28 603.89 280.81 C603.89 281.33 603.68 281.93 603.43 282.14 C603.18 282.35 602.98 282.97 602.98 283.51 C602.98 284.06 602.77 284.67 602.52 284.88 C602.27 285.09 602.06 285.66 602.06 286.15 C602.06 286.64 601.58 287.93 601.00 289.02 C600.41 290.10 599.93 291.38 599.93 291.86 C599.93 292.34 599.72 292.90 599.47 293.11 C599.22 293.32 599.02 293.93 599.02 294.48 C599.02 295.03 598.81 295.64 598.56 295.85 C598.31 296.06 598.10 296.66 598.10 297.18 C598.10 297.71 597.83 298.55 597.49 299.05 C597.16 299.55 596.89 300.35 596.88 300.82 C596.88 301.30 596.68 301.89 596.43 302.14 C596.17 302.39 595.97 303.05 595.97 303.61 C595.97 304.16 595.76 304.78 595.51 304.99 C595.26 305.20 595.05 305.82 595.05 306.38 C595.05 306.93 594.85 307.59 594.60 307.84 C594.35 308.09 594.14 308.62 594.14 309.01 C594.14 309.40 593.87 310.24 593.53 310.86 C593.20 311.49 592.92 312.40 592.92 312.89 C592.92 313.39 592.80 313.87 592.64 313.96 C592.16 314.26 591.09 316.73 591.09 317.56 C591.09 318.00 590.87 318.57 590.61 318.84 C590.34 319.11 590.05 319.87 589.96 320.54 C589.87 321.20 589.61 321.90 589.38 322.09 C589.15 322.28 588.96 322.95 588.96 323.58 C588.96 324.22 588.76 324.89 588.50 325.10 C588.25 325.31 588.05 325.93 588.05 326.47 C588.05 327.02 587.86 327.62 587.63 327.81 C587.40 328.00 587.14 328.71 587.05 329.40 C586.95 330.08 586.66 330.87 586.40 331.17 C586.13 331.46 585.91 332.01 585.91 332.39 C585.91 333.19 584.66 336.07 584.32 336.07 C584.19 336.07 584.09 336.48 584.09 336.99 C584.09 337.49 583.81 338.41 583.48 339.04 C583.14 339.66 582.87 340.54 582.87 340.98 C582.87 341.42 582.66 341.96 582.41 342.16 C582.16 342.37 581.95 342.93 581.95 343.40 C581.95 343.87 581.19 345.74 580.25 347.55 C578.50 350.95 576.07 353.88 574.18 354.88 C572.53 355.76 568.42 357.09 567.38 357.09 C566.00 357.09 561.68 354.98 559.94 353.44 L558.52 352.19 L556.69 353.12 C555.68 353.63 554.65 354.05 554.40 354.05 C554.15 354.05 553.49 354.23 552.94 354.46 C550.64 355.42 549.67 355.66 547.12 355.90 C545.64 356.03 544.22 356.32 543.96 356.53 C543.69 356.76 542.35 356.96 540.71 357.03 C538.50 357.12 537.53 357.01 535.98 356.51 C534.91 356.16 533.27 355.87 532.33 355.86 C531.38 355.86 530.27 355.66 529.85 355.42 C529.43 355.18 528.82 354.98 528.49 354.97 C528.16 354.97 526.46 354.24 524.70 353.36 C521.96 351.99 521.01 351.29 518.04 348.49 C514.36 345.00 514.27 344.97 512.97 346.40 C512.65 346.75 512.23 347.04 512.03 347.04 C511.84 347.04 511.08 347.55 510.35 348.18 C507.46 350.67 501.66 354.04 500.23 354.06 C499.85 354.06 499.27 354.27 498.94 354.51 C498.62 354.76 498.00 354.96 497.56 354.96 C497.13 354.96 496.51 355.15 496.18 355.37 C495.84 355.60 494.65 355.86 493.51 355.95 C492.38 356.04 491.23 356.29 490.97 356.52 C490.65 356.78 489.42 356.96 487.54 357.01 C485.19 357.09 484.28 356.98 482.94 356.49 Z M498.47 332.44 C502.08 331.05 505.85 328.26 506.92 326.18 C507.18 325.67 507.91 324.66 508.55 323.94 C509.93 322.36 513.09 316.14 513.09 314.99 C513.09 314.54 513.22 314.09 513.37 314.00 C513.86 313.70 514.92 311.23 514.92 310.40 C514.92 309.96 515.12 309.40 515.37 309.16 C515.62 308.91 515.91 308.15 516.02 307.47 C516.13 306.78 516.41 306.07 516.64 305.87 C516.87 305.68 517.05 305.00 517.05 304.36 C517.05 303.72 517.18 303.12 517.33 303.03 C517.75 302.77 518.79 300.41 519.00 299.26 C519.10 298.71 519.39 298.05 519.64 297.79 C519.89 297.54 520.10 296.88 520.10 296.32 C520.10 295.77 520.31 295.15 520.56 294.94 C520.82 294.72 521.02 294.05 521.02 293.37 C521.02 292.59 521.17 292.12 521.47 292.00 C521.76 291.89 521.93 291.42 521.93 290.70 C521.93 290.08 522.06 289.44 522.22 289.29 C522.88 288.62 524.06 286.01 524.06 285.21 C524.06 284.74 524.27 284.18 524.52 283.97 C524.77 283.76 524.98 283.14 524.98 282.58 C524.98 282.03 525.18 281.37 525.43 281.12 C525.68 280.87 525.89 280.27 525.89 279.80 C525.89 279.33 526.17 278.53 526.50 278.03 C526.83 277.52 527.11 276.74 527.11 276.29 C527.11 275.84 527.52 274.77 528.02 273.91 C528.53 273.06 528.94 271.97 528.94 271.48 C528.94 271.00 529.12 270.42 529.35 270.20 C529.57 269.97 529.86 269.25 529.98 268.59 C530.11 267.93 530.40 267.12 530.64 266.78 C530.88 266.44 531.07 265.73 531.07 265.20 C531.07 264.67 531.28 264.07 531.53 263.86 C531.78 263.65 531.98 263.03 531.98 262.49 C531.98 261.94 532.19 261.33 532.44 261.12 C532.69 260.91 532.90 260.31 532.90 259.78 C532.90 259.25 533.14 258.48 533.43 258.06 C533.85 257.47 533.96 256.68 533.96 254.41 C533.96 251.58 533.94 251.48 532.83 249.82 C531.41 247.70 528.25 244.64 526.65 243.83 C525.98 243.50 524.79 243.13 524.00 243.01 C523.21 242.90 522.13 242.58 521.59 242.31 C520.76 241.90 520.46 241.89 519.67 242.22 C519.15 242.43 518.04 242.74 517.21 242.91 C514.87 243.38 513.46 244.23 510.85 246.76 C508.93 248.63 508.19 249.62 507.09 251.82 C506.34 253.33 505.53 254.91 505.30 255.33 C505.07 255.75 504.87 256.45 504.87 256.89 C504.87 257.33 504.66 257.86 504.41 258.07 C504.15 258.28 503.95 258.95 503.95 259.59 C503.95 260.24 503.75 260.90 503.50 261.12 C503.24 261.33 503.04 261.94 503.04 262.49 C503.04 263.03 502.83 263.65 502.58 263.86 C502.33 264.07 502.12 264.57 502.12 264.98 C502.12 265.78 500.75 268.91 500.28 269.20 C500.12 269.30 499.99 269.90 499.99 270.54 C499.99 271.21 499.80 271.87 499.54 272.09 C499.28 272.29 499.08 272.88 499.08 273.39 C499.08 273.91 498.86 274.56 498.60 274.86 C498.33 275.15 498.04 275.95 497.95 276.63 C497.86 277.31 497.59 278.02 497.36 278.21 C497.13 278.40 496.95 279.01 496.95 279.55 C496.95 280.10 496.74 280.71 496.49 280.92 C496.23 281.14 496.03 281.80 496.03 282.45 C496.03 283.07 495.84 283.75 495.61 283.94 C495.38 284.13 495.12 284.83 495.03 285.49 C494.95 286.15 494.65 286.91 494.39 287.18 C494.12 287.45 493.90 288.03 493.90 288.46 C493.90 289.29 492.83 291.76 492.35 292.06 C492.20 292.15 492.07 292.67 492.07 293.21 C492.07 293.75 491.88 294.47 491.64 294.81 C491.40 295.15 491.11 295.96 490.98 296.62 C490.86 297.28 490.57 298.00 490.35 298.23 C490.12 298.45 489.94 299.09 489.94 299.64 C489.94 300.20 489.73 300.82 489.48 301.03 C489.23 301.24 489.02 301.80 489.02 302.28 C489.02 302.76 488.54 304.04 487.96 305.12 C487.37 306.21 486.89 307.41 486.88 307.80 C486.88 308.18 486.67 308.76 486.42 309.09 C486.18 309.41 485.98 310.12 485.98 310.65 C485.98 311.18 485.77 311.79 485.52 312.00 C485.27 312.21 485.06 312.83 485.06 313.39 C485.06 313.94 484.88 314.58 484.65 314.80 C484.43 315.03 484.14 315.75 484.02 316.41 C483.89 317.07 483.60 317.88 483.36 318.22 C483.04 318.68 482.93 319.91 482.93 323.06 L482.93 327.29 L484.00 328.54 C484.58 329.22 485.06 329.94 485.06 330.13 C485.06 330.62 486.22 331.62 487.65 332.37 C488.75 332.95 489.30 333.00 493.14 332.93 C495.78 332.88 497.81 332.69 498.47 332.44 Z M594.60 217.42 C592.80 216.63 591.53 216.25 589.99 216.05 C588.85 215.90 588.13 215.58 587.31 214.87 C586.70 214.33 586.05 213.89 585.86 213.89 C585.68 213.89 584.31 212.70 582.83 211.25 C580.31 208.78 580.12 208.52 580.12 207.37 C580.12 206.49 579.65 205.22 578.41 202.78 C577.47 200.93 576.58 199.26 576.42 199.07 C576.27 198.88 576.06 196.68 575.96 194.18 L575.77 189.65 L576.75 188.82 C577.29 188.36 578.01 187.99 578.35 187.99 C578.69 187.99 580.13 188.78 581.56 189.74 C582.99 190.71 584.52 191.68 584.96 191.92 C585.40 192.15 586.11 192.66 586.53 193.05 C586.96 193.45 587.78 193.86 588.36 193.98 C589.97 194.29 591.60 195.24 593.49 196.96 C595.22 198.53 597.69 200.28 598.25 200.34 C598.42 200.35 598.80 200.48 599.10 200.61 C599.42 200.76 599.81 200.71 600.07 200.49 C600.52 200.12 600.51 200.06 599.52 198.15 C599.24 197.62 599.02 196.59 599.02 195.85 C599.02 195.12 598.89 194.38 598.74 194.22 C598.07 193.50 595.97 189.00 595.97 188.27 C595.97 187.82 595.76 187.29 595.51 187.08 C595.17 186.79 595.05 186.03 595.05 184.03 C595.05 182.03 595.17 181.27 595.51 180.98 C595.85 180.71 595.97 179.97 595.97 178.27 C595.97 176.18 596.08 175.72 597.03 173.96 C597.91 172.33 598.09 171.68 598.09 170.11 C598.10 169.07 598.24 168.14 598.41 168.03 C598.58 167.93 598.92 167.40 599.17 166.87 C599.63 165.90 600.31 164.88 602.05 162.52 C602.56 161.83 602.98 161.12 602.98 160.93 C602.98 160.74 603.37 160.38 603.85 160.13 C604.48 159.81 604.79 159.37 604.94 158.59 C605.19 157.23 606.62 155.59 608.72 154.24 C609.62 153.67 610.58 152.78 610.85 152.27 C611.13 151.76 611.93 150.68 612.62 149.88 C613.32 149.08 613.98 148.14 614.09 147.79 C614.28 147.18 615.28 146.92 615.58 147.40 C615.66 147.53 615.82 149.45 615.94 151.67 C616.10 154.46 616.29 155.80 616.58 156.04 C616.83 156.25 616.99 157.01 616.99 158.00 C616.99 158.89 617.12 159.70 617.28 159.80 C617.75 160.09 619.12 163.22 619.12 164.02 C619.12 164.43 619.33 164.93 619.58 165.14 C619.83 165.35 620.04 165.96 620.04 166.50 C620.04 167.12 620.29 167.71 620.75 168.14 C621.13 168.50 621.85 169.66 622.34 170.70 C622.84 171.75 623.41 172.79 623.62 173.01 C624.22 173.64 624.15 182.61 623.54 183.12 C623.29 183.33 623.09 183.97 623.09 184.55 C623.09 185.70 622.22 187.94 620.89 190.21 C620.31 191.22 620.04 192.10 620.04 193.02 C620.04 194.07 619.84 194.59 619.17 195.37 C618.69 195.92 617.92 197.16 617.47 198.12 C617.02 199.08 616.52 199.94 616.36 200.04 C616.21 200.14 616.08 200.68 616.08 201.25 C616.08 201.96 615.80 202.61 615.21 203.29 C614.72 203.84 613.94 205.09 613.45 206.07 C611.65 209.70 611.50 209.93 610.93 209.93 C610.14 209.93 609.99 209.14 609.99 205.02 C609.99 202.31 609.88 201.39 609.54 201.11 C609.30 200.91 609.06 200.31 609.01 199.78 C608.93 198.91 608.86 199.01 608.33 200.71 C608.00 201.76 607.60 202.62 607.43 202.62 C607.25 202.62 607.28 202.77 607.49 202.98 C608.02 203.52 607.97 207.32 607.41 207.78 C607.06 208.08 606.71 207.91 605.60 206.88 C604.84 206.18 604.13 205.34 604.03 205.01 C603.89 204.58 603.74 204.50 603.46 204.73 C603.20 204.94 602.87 204.88 602.36 204.53 L601.63 204.01 L602.30 204.96 C602.67 205.48 602.98 206.04 602.98 206.21 C602.98 206.37 603.18 206.67 603.43 206.88 C603.72 207.12 603.89 207.79 603.89 208.67 C603.89 209.57 604.12 210.42 604.50 211.00 C604.83 211.50 605.11 212.31 605.11 212.80 C605.11 213.29 605.34 213.94 605.61 214.25 C606.03 214.71 606.06 214.95 605.77 215.58 C605.58 216.00 605.21 216.43 604.96 216.52 C604.36 216.75 602.49 215.87 601.21 214.76 C600.66 214.28 600.08 213.89 599.92 213.89 C599.76 213.89 598.88 213.21 597.97 212.38 C597.05 211.56 595.92 210.64 595.45 210.35 C594.98 210.05 593.91 209.25 593.07 208.56 C592.24 207.88 591.21 207.08 590.79 206.80 C590.37 206.51 589.74 206.07 589.39 205.82 C588.80 205.38 588.76 205.40 588.78 206.04 C588.80 206.44 588.65 206.70 588.43 206.65 C587.91 206.55 587.94 206.78 588.67 208.29 C589.03 209.04 589.74 209.84 590.33 210.19 C590.90 210.53 591.65 211.36 592.00 212.04 C592.39 212.82 593.05 213.49 593.76 213.86 C595.30 214.65 596.97 216.43 596.83 217.13 C596.70 217.84 595.80 217.95 594.60 217.42 Z"/></svg>